<svg width="21" height="21" viewBox="0 0 21 21" fill="none" xmlns="http://www.w3.org/2000/svg">
<path d="M15.0456 1.80737C13.2938 1.79801 11.6284 2.56736 10.5 3.90734C9.37863 2.55821 7.70864 1.78666 5.9544 1.80737C2.66586 1.80737 0 4.47323 0 7.76176C0 13.3972 9.83543 18.8997 10.2342 19.1124C10.3951 19.2199 10.6049 19.2199 10.7658 19.1124C11.1646 18.8997 21 13.477 21 7.76176C21 4.47323 18.3341 1.80737 15.0456 1.80737ZM10.5 18.0491C8.95821 17.1453 1.06329 12.334 1.06329 7.76176C1.06329 5.06049 3.25312 2.87061 5.95445 2.87061C7.60866 2.84888 9.15674 3.68327 10.0481 5.07692C10.2291 5.32649 10.5782 5.3821 10.8277 5.20107C10.8754 5.16647 10.9173 5.1246 10.9519 5.07692C12.4302 2.81607 15.4614 2.18169 17.7223 3.66001C19.1063 4.56502 19.9394 6.10806 19.9367 7.76171C19.9367 12.3871 12.0417 17.1719 10.5 18.0491Z" fill="#372821"/>
</svg>
