<svg width="19" height="16" viewBox="0 0 19 16" fill="none" xmlns="http://www.w3.org/2000/svg">
<path d="M17.5025 1.8182H3.53408V1.94864L3.3593 1.30947C3.14872 0.538423 2.47584 0 1.72301 0H0.55115C0.315603 0 0.125 0.20331 0.125 0.45456C0.125 0.70581 0.315603 0.909119 0.55115 0.909119H1.72301C2.09962 0.909119 2.43588 1.17814 2.54115 1.56388L5.19369 11.2642L3.83454 13.0762C3.64063 13.335 3.53408 13.6595 3.53408 13.9906C3.53408 14.7981 4.14955 15.4546 4.90653 15.4546H16.7443C16.9799 15.4546 17.1705 15.2513 17.1705 15C17.1705 14.7488 16.9799 14.5454 16.7443 14.5454H4.90653C4.61981 14.5454 4.38634 14.2964 4.38634 13.9906C4.38634 13.8649 4.42669 13.7415 4.50036 13.6439L5.86981 11.8182H14.2283C14.8854 11.8182 15.4908 11.4084 15.7709 10.7741L18.7448 4.03364C18.83 3.83966 18.875 3.62438 18.875 3.41084V3.2821C18.875 2.4747 18.2595 1.8182 17.5025 1.8182ZM18.0227 3.41088C18.0227 3.4921 18.0057 3.57379 17.9732 3.64705L14.9998 10.3871C14.8596 10.704 14.557 10.9091 14.2283 10.9091H5.98439L3.74701 2.72727H17.5025C17.7893 2.72727 18.0227 2.97631 18.0227 3.28215V3.41088Z" fill="#372821"/>
</svg>
